<svg width="28" height="28" viewBox="0 0 28 28" fill="none" xmlns="http://www.w3.org/2000/svg">
<path fill-rule="evenodd" clip-rule="evenodd" d="M5.92667 10.4998H5.83333C5.21449 10.4998 4.621 10.7456 4.18342 11.1832C3.74583 11.6208 3.5 12.2143 3.5 12.8331V15.1665C3.5 15.7853 3.74583 16.3788 4.18342 16.8164C4.621 17.254 5.21449 17.4998 5.83333 17.4998H5.92667C6.26332 17.4997 6.59601 17.5724 6.90191 17.7129C7.20781 17.8535 7.47967 18.0586 7.69883 18.3141L11.9478 23.2725C12.6525 24.0938 14 23.5956 14 22.513V5.48663C14 4.40397 12.6525 3.9058 11.9467 4.7283L7.7 9.6843C7.48082 9.94021 7.20882 10.1456 6.9027 10.2864C6.59658 10.4272 6.2636 10.5 5.92667 10.4998ZM21.742 4.9873C21.6316 4.87848 21.5006 4.79276 21.3567 4.73515C21.2127 4.67754 21.0588 4.64919 20.9038 4.65175C20.7488 4.65432 20.5958 4.68775 20.4539 4.7501C20.312 4.81245 20.1839 4.90246 20.0771 5.01487C19.9704 5.12729 19.8871 5.25985 19.8321 5.40481C19.7772 5.54978 19.7517 5.70424 19.7571 5.85917C19.7626 6.0141 19.7988 6.1664 19.8638 6.30716C19.9288 6.44791 20.0211 6.57431 20.1355 6.67897C24.3997 10.7296 24.3997 17.27 20.1355 21.3206C20.0211 21.4253 19.9288 21.5517 19.8638 21.6924C19.7988 21.8332 19.7626 21.9855 19.7571 22.1404C19.7517 22.2954 19.7772 22.4498 19.8321 22.5948C19.8871 22.7398 19.9704 22.8723 20.0771 22.9847C20.1839 23.0971 20.312 23.1872 20.4539 23.2495C20.5958 23.3118 20.7488 23.3453 20.9038 23.3478C21.0588 23.3504 21.2127 23.3221 21.3567 23.2645C21.5006 23.2068 21.6316 23.1211 21.742 23.0123C26.9745 18.0423 26.9745 9.9573 21.742 4.9873V4.9873ZM18.3038 8.25397C18.0795 8.04078 17.7797 7.92543 17.4703 7.93331C17.1609 7.94119 16.8674 8.07164 16.6542 8.29597C16.441 8.5203 16.3256 8.82013 16.3335 9.1295C16.3414 9.43887 16.4718 9.73244 16.6962 9.94563C19.061 12.1915 19.061 15.8081 16.6962 18.054C16.5851 18.1595 16.4959 18.2859 16.4337 18.426C16.3714 18.566 16.3374 18.7169 16.3335 18.8701C16.3296 19.0233 16.3559 19.1757 16.4109 19.3188C16.466 19.4618 16.5486 19.5926 16.6542 19.7036C16.8674 19.928 17.1609 20.0584 17.4703 20.0663C17.6235 20.0702 17.7759 20.0439 17.919 19.9889C18.062 19.9338 18.1928 19.8512 18.3038 19.7456C21.637 16.5793 21.637 11.4203 18.3038 8.25397V8.25397Z" fill="#B8C8C7"/>
</svg>
