<svg width="28" height="28" viewBox="0 0 28 28" fill="none" xmlns="http://www.w3.org/2000/svg">
<path d="M23.3333 5.83333H19.635L17.5 3.5H10.5L8.36498 5.83333H4.66665C3.38331 5.83333 2.33331 6.88333 2.33331 8.16667V22.1667C2.33331 23.45 3.38331 24.5 4.66665 24.5H23.3333C24.6166 24.5 25.6666 23.45 25.6666 22.1667V8.16667C25.6666 6.88333 24.6166 5.83333 23.3333 5.83333ZM23.3333 22.1667H4.66665V8.16667H9.39165L10.08 7.40833L11.5266 5.83333H16.4733L17.92 7.40833L18.6083 8.16667H23.3333V22.1667Z" fill="white"/>
<path d="M14 19.8335C11.4216 19.8335 9.33331 17.7452 9.33331 15.1668H11.6666L8.74998 12.2502L5.83331 15.1668H8.16665C8.16665 18.3868 10.78 21.0002 14 21.0002C15.0033 21.0002 15.925 20.7202 16.7533 20.2768L15.89 19.4135C15.3183 19.6818 14.6766 19.8335 14 19.8335ZM14 9.3335C12.9966 9.3335 12.075 9.6135 11.2466 10.0568L12.11 10.9085C12.6816 10.6518 13.3233 10.5002 14 10.5002C16.5783 10.5002 18.6666 12.5885 18.6666 15.1668H16.3333L19.25 18.0835L22.1666 15.1668H19.8333C19.8333 11.9468 17.22 9.3335 14 9.3335Z" fill="white"/>
</svg>
