<svg width="41" height="41" viewBox="0 0 41 41" fill="none" xmlns="http://www.w3.org/2000/svg">
<path d="M32.8556 18.262L32.8611 22.4276C32.8622 22.7222 32.8052 23.014 32.6932 23.2861C32.5812 23.5582 32.4164 23.8053 32.2084 24.0132C31.7846 24.4371 31.2196 24.6689 30.6208 24.6678L26.1363 24.6599C25.8417 24.66 25.5498 24.6019 25.2772 24.4889C25.0047 24.376 24.757 24.2104 24.5484 24.0016C24.1231 23.5763 23.8892 23.0104 23.8882 22.4117L23.8823 19.1325C22.6518 18.6681 21.3482 18.4298 20.0345 18.4291C18.7192 18.4235 17.4146 18.6552 16.1832 19.1129L16.189 22.3922C16.1901 22.6868 16.1331 22.9785 16.0211 23.2507C15.9091 23.5228 15.7443 23.7699 15.5363 23.9778C15.1125 24.4016 14.5475 24.6335 13.9488 24.6324L9.46426 24.6284C9.16918 24.6284 8.8768 24.5701 8.60394 24.4568C8.33108 24.3435 8.08313 24.1774 7.87435 23.9681C7.44902 23.5428 7.21518 22.9769 7.21412 22.3782L7.20675 18.2185C7.20309 17.2617 7.58884 16.3311 8.26462 15.6553C8.4072 15.5127 8.55568 15.3878 8.71396 15.2765C11.7819 13.0789 15.7986 11.8729 20.0189 11.8784C24.2354 11.8839 28.2524 13.1041 31.3419 15.3147C32.2842 15.9914 32.8496 17.092 32.8556 18.262Z" fill="#FAFFFD"/>
</svg>
