<svg width="9" height="11" viewBox="0 0 9 11" fill="none" xmlns="http://www.w3.org/2000/svg">
<path d="M8.83332 5.50016C8.83332 4.9027 8.34745 4.41683 7.74999 4.41683H7.20832V2.79183C7.20832 1.29845 5.99336 0.0834961 4.49999 0.0834961C3.00661 0.0834961 1.79166 1.29845 1.79166 2.79183V4.41683H1.24999C0.652531 4.41683 0.166656 4.9027 0.166656 5.50016V9.8335C0.166656 10.431 0.652531 10.9168 1.24999 10.9168H7.74999C8.34745 10.9168 8.83332 10.431 8.83332 9.8335V5.50016ZM2.87499 2.79183C2.87499 1.89591 3.60407 1.16683 4.49999 1.16683C5.39591 1.16683 6.12499 1.89591 6.12499 2.79183V4.41683H2.87499V2.79183Z" fill="#8DB5B4"/>
</svg>
