<svg width="18" height="22" viewBox="0 0 18 22" fill="none" xmlns="http://www.w3.org/2000/svg">
<path d="M15.875 11.0001C15.875 11.7756 15.7458 12.5222 15.5093 13.2179L14.39 12.0987C14.4632 11.7371 14.5001 11.369 14.5 11.0001V9.62506C14.5 9.44273 14.5724 9.26786 14.7014 9.13893C14.8303 9.01 15.0052 8.93756 15.1875 8.93756C15.3698 8.93756 15.5447 9.01 15.6736 9.13893C15.8026 9.26786 15.875 9.44273 15.875 9.62506V11.0001ZM9 16.5001C10.1248 16.5001 11.1698 16.1632 12.0415 15.5829L13.0288 16.5716C12.0472 17.2833 10.8941 17.7214 9.6875 17.8407V20.6251H13.8125C13.9948 20.6251 14.1697 20.6975 14.2986 20.8264C14.4276 20.9554 14.5 21.1302 14.5 21.3126C14.5 21.4949 14.4276 21.6698 14.2986 21.7987C14.1697 21.9276 13.9948 22.0001 13.8125 22.0001H4.1875C4.00516 22.0001 3.8303 21.9276 3.70136 21.7987C3.57243 21.6698 3.5 21.4949 3.5 21.3126C3.5 21.1302 3.57243 20.9554 3.70136 20.8264C3.8303 20.6975 4.00516 20.6251 4.1875 20.6251H8.3125V17.8407C6.61669 17.6703 5.04464 16.876 3.90133 15.612C2.75803 14.348 2.12498 12.7044 2.125 11.0001V9.62506C2.125 9.44273 2.19743 9.26786 2.32636 9.13893C2.4553 9.01 2.63016 8.93756 2.8125 8.93756C2.99484 8.93756 3.1697 9.01 3.29864 9.13893C3.42757 9.26786 3.5 9.44273 3.5 9.62506V11.0001C3.5 12.4588 4.07946 13.8577 5.11091 14.8892C6.14236 15.9206 7.54131 16.5001 9 16.5001ZM13.125 4.12506V10.8337L5.09225 2.80094C5.40705 1.87589 6.0399 1.09258 6.87815 0.590442C7.71639 0.0883044 8.70564 -0.100068 9.66977 0.0588598C10.6339 0.217788 11.5103 0.713701 12.1431 1.45832C12.7758 2.20293 13.1238 3.14792 13.125 4.12506Z" fill="white"/>
<path d="M11.0433 14.5846L4.87506 8.41493V10.9999C4.87484 11.7222 5.0643 12.432 5.42447 13.0581C5.78465 13.6842 6.30291 14.2047 6.92742 14.5676C7.55193 14.9306 8.2608 15.1232 8.9831 15.1261C9.70541 15.1291 10.4158 14.9423 11.0433 14.5846V14.5846ZM0.263306 1.86168L16.7633 18.3617L17.7368 17.3882L1.23681 0.888184L0.263306 1.86168V1.86168Z" fill="white"/>
</svg>
