<svg width="24" height="15" viewBox="0 0 24 15" fill="none" xmlns="http://www.w3.org/2000/svg">
<path d="M16.2857 15H1.71429C1.25963 15 0.823594 14.842 0.502103 14.5607C0.180612 14.2794 0 13.8978 0 13.5V1.5C0 1.10218 0.180612 0.720644 0.502103 0.43934C0.823594 0.158035 1.25963 0 1.71429 0H16.2857C16.7404 0 17.1764 0.158035 17.4979 0.43934C17.8194 0.720644 18 1.10218 18 1.5V4.545L22.6457 1.6425C22.7736 1.5628 22.9241 1.51538 23.0808 1.50543C23.2374 1.49547 23.3941 1.52336 23.5339 1.58605C23.6736 1.64874 23.791 1.74382 23.8732 1.8609C23.9554 1.97799 23.9993 2.11259 24 2.25V12.75C23.9993 12.8874 23.9554 13.022 23.8732 13.1391C23.791 13.2562 23.6736 13.3513 23.5339 13.414C23.3941 13.4766 23.2374 13.5045 23.0808 13.4946C22.9241 13.4846 22.7736 13.4372 22.6457 13.3575L18 10.455V13.5C18 13.8978 17.8194 14.2794 17.4979 14.5607C17.1764 14.842 16.7404 15 16.2857 15Z" fill="#4B7F7B"/>
</svg>
