<svg width="22" height="22" viewBox="0 0 22 22" fill="none" xmlns="http://www.w3.org/2000/svg">
<path d="M6.875 4.125C6.875 3.03098 7.3096 1.98177 8.08318 1.20818C8.85677 0.434597 9.90598 0 11 0C12.094 0 13.1432 0.434597 13.9168 1.20818C14.6904 1.98177 15.125 3.03098 15.125 4.125V11C15.125 12.094 14.6904 13.1432 13.9168 13.9168C13.1432 14.6904 12.094 15.125 11 15.125C9.90598 15.125 8.85677 14.6904 8.08318 13.9168C7.3096 13.1432 6.875 12.094 6.875 11V4.125Z" fill="#B8C8C7"/>
<path d="M4.8125 8.9375C4.99484 8.9375 5.1697 9.00993 5.29864 9.13886C5.42757 9.2678 5.5 9.44266 5.5 9.625V11C5.5 12.4587 6.07946 13.8576 7.11091 14.8891C8.14236 15.9205 9.54131 16.5 11 16.5C12.4587 16.5 13.8576 15.9205 14.8891 14.8891C15.9205 13.8576 16.5 12.4587 16.5 11V9.625C16.5 9.44266 16.5724 9.2678 16.7014 9.13886C16.8303 9.00993 17.0052 8.9375 17.1875 8.9375C17.3698 8.9375 17.5447 9.00993 17.6736 9.13886C17.8026 9.2678 17.875 9.44266 17.875 9.625V11C17.875 12.7044 17.242 14.348 16.0987 15.6119C14.9554 16.8759 13.3833 17.6702 11.6875 17.8406V20.625H15.8125C15.9948 20.625 16.1697 20.6974 16.2986 20.8264C16.4276 20.9553 16.5 21.1302 16.5 21.3125C16.5 21.4948 16.4276 21.6697 16.2986 21.7986C16.1697 21.9276 15.9948 22 15.8125 22H6.1875C6.00516 22 5.8303 21.9276 5.70136 21.7986C5.57243 21.6697 5.5 21.4948 5.5 21.3125C5.5 21.1302 5.57243 20.9553 5.70136 20.8264C5.8303 20.6974 6.00516 20.625 6.1875 20.625H10.3125V17.8406C8.61669 17.6702 7.04464 16.8759 5.90133 15.6119C4.75803 14.348 4.12498 12.7044 4.125 11V9.625C4.125 9.44266 4.19743 9.2678 4.32636 9.13886C4.4553 9.00993 4.63016 8.9375 4.8125 8.9375Z" fill="#B8C8C7"/>
</svg>
