<svg width="16" height="19" viewBox="0 0 16 19" fill="none" xmlns="http://www.w3.org/2000/svg">
<path d="M2.31423 1.6275L3.25491 1.14824C4.13487 0.698381 5.20661 1.01609 5.75857 1.88897L6.85697 3.62763C7.33521 4.3843 7.30019 5.37341 6.77094 6.07136L5.29713 8.01354C5.5677 8.98704 6.06083 9.9081 6.77575 10.7773C7.4586 11.6189 8.30334 12.3149 9.25998 12.8241L11.2424 11.7822C11.9936 11.3866 12.9082 11.5491 13.5129 12.1849L14.9215 13.6676C15.6249 14.4078 15.711 15.5725 15.1243 16.3923L14.4943 17.2735C13.8685 18.1488 12.8419 18.5973 11.8006 18.4509C9.34199 18.1043 6.83618 16.2907 4.28315 13.01C1.72663 9.7232 0.531247 6.77636 0.697365 4.16669C0.766806 3.06861 1.3825 2.10361 2.31423 1.6275Z" fill="#02AD9B"/>
</svg>
