<svg width="24" height="21" viewBox="0 0 24 21" fill="none" xmlns="http://www.w3.org/2000/svg">
<path d="M2.66671 3.69242H6.27277L7.13186 1.21492C7.19122 1.04539 7.29998 0.898854 7.4433 0.795323C7.58662 0.691791 7.75751 0.636316 7.93262 0.636475H16.0675C16.4254 0.636475 16.7463 0.868399 16.8656 1.21492L17.7273 3.69242H21.3334C22.5053 3.69242 23.4546 4.66923 23.4546 5.87524V18.3173C23.4546 19.5233 22.5053 20.5001 21.3334 20.5001H2.66671C1.49474 20.5001 0.545498 19.5233 0.545498 18.3173V5.87524C0.545498 4.66923 1.49474 3.69242 2.66671 3.69242ZM12 16.1345C14.344 16.1345 16.2425 14.1809 16.2425 11.7688C16.2425 9.35683 14.344 7.40321 12 7.40321C9.6561 7.40321 7.75762 9.35683 7.75762 11.7688C7.75762 14.1809 9.6561 16.1345 12 16.1345ZM14.5455 11.7688C14.5455 12.4635 14.2773 13.1298 13.8 13.621C13.3226 14.1123 12.6751 14.3882 12 14.3882C11.3249 14.3882 10.6775 14.1123 10.2001 13.621C9.72277 13.1298 9.45459 12.4635 9.45459 11.7688C9.45459 11.0741 9.72277 10.4079 10.2001 9.91666C10.6775 9.42543 11.3249 9.14946 12 9.14946C12.6751 9.14946 13.3226 9.42543 13.8 9.91666C14.2773 10.4079 14.5455 11.0741 14.5455 11.7688Z" fill="white"/>
</svg>
