<svg width="19" height="17" viewBox="0 0 19 17" fill="none" xmlns="http://www.w3.org/2000/svg">
<path d="M17.0694 2.75H14.6331L12.0827 0.268584C11.9954 0.183295 11.8916 0.115656 11.7773 0.0695616C11.6629 0.0234668 11.5404 -0.000173662 11.4166 9.60368e-07H7.64812C7.52438 -0.000173662 7.40182 0.0234668 7.28751 0.0695616C7.17319 0.115656 7.06938 0.183295 6.98204 0.268584L4.43169 2.75H1.99534C0.956174 2.75 0.111084 3.57225 0.111084 4.58333V14.6667C0.111084 15.6778 0.956174 16.5 1.99534 16.5H17.0694C18.1086 16.5 18.9537 15.6778 18.9537 14.6667V4.58333C18.9537 3.57225 18.1086 2.75 17.0694 2.75ZM9.53238 13.75C6.97921 13.75 4.82173 11.6508 4.82173 9.16667C4.82173 6.6825 6.97921 4.58333 9.53238 4.58333C12.0856 4.58333 14.243 6.6825 14.243 9.16667C14.243 11.6508 12.0856 13.75 9.53238 13.75Z" fill="#9FA5A9"/>
</svg>
