<svg width="19" height="12" viewBox="0 0 19 12" fill="none" xmlns="http://www.w3.org/2000/svg">
<path d="M12.8929 12H1.35714C0.997206 12 0.652012 11.8736 0.397498 11.6485C0.142984 11.4235 0 11.1183 0 10.8V1.2C0 0.88174 0.142984 0.576515 0.397498 0.351472C0.652012 0.126428 0.997206 0 1.35714 0H12.8929C13.2528 0 13.598 0.126428 13.8525 0.351472C14.107 0.576515 14.25 0.88174 14.25 1.2V3.636L17.9279 1.314C18.0291 1.25024 18.1483 1.21231 18.2723 1.20434C18.3963 1.19638 18.5204 1.21869 18.631 1.26884C18.7416 1.31899 18.8346 1.39505 18.8996 1.48872C18.9647 1.58239 18.9994 1.69007 19 1.8V10.2C18.9994 10.3099 18.9647 10.4176 18.8996 10.5113C18.8346 10.6049 18.7416 10.681 18.631 10.7312C18.5204 10.7813 18.3963 10.8036 18.2723 10.7957C18.1483 10.7877 18.0291 10.7498 17.9279 10.686L14.25 8.364V10.8C14.25 11.1183 14.107 11.4235 13.8525 11.6485C13.598 11.8736 13.2528 12 12.8929 12Z" fill="white"/>
</svg>
