<svg width="21" height="20" viewBox="0 0 21 20" fill="none" xmlns="http://www.w3.org/2000/svg">
<path d="M10.639 0C4.96134 0 0.361206 4.47581 0.361206 10C0.361206 15.5242 4.96134 20 10.639 20C16.3166 20 20.9168 15.5242 20.9168 10C20.9168 4.47581 16.3166 0 10.639 0ZM13.9544 6.77419C14.6879 6.77419 15.2806 7.35081 15.2806 8.06452C15.2806 8.77823 14.6879 9.35484 13.9544 9.35484C13.2209 9.35484 12.6282 8.77823 12.6282 8.06452C12.6282 7.35081 13.2209 6.77419 13.9544 6.77419ZM7.32357 6.77419C8.05711 6.77419 8.64974 7.35081 8.64974 8.06452C8.64974 8.77823 8.05711 9.35484 7.32357 9.35484C6.59004 9.35484 5.99741 8.77823 5.99741 8.06452C5.99741 7.35081 6.59004 6.77419 7.32357 6.77419ZM15.3966 13.6371C14.2155 15.0161 12.4832 15.8065 10.639 15.8065C8.79479 15.8065 7.06248 15.0161 5.88137 13.6371C5.31775 12.9798 6.33724 12.1573 6.90086 12.8105C7.82917 13.8952 9.18849 14.5121 10.639 14.5121C12.0895 14.5121 13.4488 13.8911 14.3771 12.8105C14.9324 12.1573 15.9561 12.9798 15.3966 13.6371Z" fill="#A6ABAF"/>
</svg>
