<svg width="21" height="21" viewBox="0 0 21 21" fill="none" xmlns="http://www.w3.org/2000/svg">
<path d="M3.58406 0.000484467C2.67112 0.000484467 1.86039 0.349947 1.15184 1.04887C0.402421 1.78812 0.02771 2.6853 0.02771 3.7404C0.02771 4.79551 0.402421 5.69269 1.15184 6.43194L12.9041 18.7303C13.5037 19.3352 14.1952 19.7249 14.9787 19.8997C15.7622 20.0744 16.5559 20.0274 17.3598 19.7586C18.1637 19.4897 18.9063 19.026 19.5876 18.3674C19.8056 18.1389 20.0066 17.8869 20.1906 17.6114C20.3745 17.3358 20.5244 17.0469 20.6402 16.7444C20.756 16.442 20.8446 16.1228 20.9059 15.7868C20.9672 15.4508 20.9979 15.1147 20.9979 14.7787C20.9706 13.354 20.4801 12.1645 19.5263 11.2102L10.6354 1.89565C10.5128 1.76124 10.3629 1.69067 10.1858 1.68395C10.0086 1.67723 9.85535 1.73436 9.7259 1.85532C9.59646 1.97629 9.52833 2.1275 9.52152 2.30895C9.5147 2.4904 9.57261 2.64833 9.69525 2.78274L18.5861 12.0973C19.3083 12.8231 19.6762 13.7236 19.6898 14.7989C19.7034 15.8741 19.356 16.7545 18.6474 17.44C18.2114 17.8836 17.7277 18.2196 17.1963 18.4481C16.6649 18.6766 16.0926 18.7505 15.4794 18.6698C14.8663 18.5892 14.3212 18.3137 13.8443 17.8432L2.09203 5.54484C1.58787 5.04753 1.33579 4.44941 1.33579 3.75048C1.33579 3.05156 1.58787 2.45344 2.09203 1.95613C2.32366 1.72763 2.57574 1.55626 2.84826 1.44202C3.12078 1.32777 3.40692 1.28409 3.70669 1.31097C4.30622 1.33785 4.86488 1.61339 5.38267 2.13758L14.7232 11.936C14.7913 12.0032 14.856 12.0737 14.9174 12.1477C14.9787 12.2216 15.0434 12.309 15.1115 12.4098C15.1796 12.5106 15.2342 12.6181 15.275 12.7323C15.3159 12.8466 15.3432 12.9608 15.3568 13.0751C15.3704 13.1893 15.35 13.3069 15.2955 13.4279C15.241 13.5489 15.1592 13.6631 15.0502 13.7706C14.7913 14.0395 14.5392 14.1604 14.294 14.1336C14.0351 14.1067 13.7421 13.9387 13.4151 13.6295L6.38417 6.25049C6.30241 6.16984 6.20703 6.11272 6.09802 6.07911C5.98902 6.04551 5.8766 6.04215 5.76078 6.06903C5.64496 6.09592 5.54618 6.14968 5.46442 6.23032C5.32816 6.35129 5.26003 6.49914 5.26003 6.67387C5.26003 6.8486 5.32135 7.00317 5.44398 7.13758L12.4749 14.5368C13.0336 15.0744 13.599 15.3701 14.1713 15.4239C14.8254 15.4776 15.4249 15.2357 15.9699 14.6981C16.4877 14.2008 16.716 13.6161 16.6546 12.944C16.5933 12.272 16.2629 11.6403 15.6634 11.0489L6.32285 1.23032C5.5598 0.477636 4.70819 0.0744095 3.768 0.0206451C3.74075 0.0206451 3.71009 0.0172844 3.67603 0.0105648C3.64196 0.00384521 3.61131 0.000484467 3.58406 0.000484467Z" fill="#A7ACB0"/>
</svg>
