<svg width="17" height="17" viewBox="0 0 17 17" fill="none" xmlns="http://www.w3.org/2000/svg">
<path fill-rule="evenodd" clip-rule="evenodd" d="M3.05517 12.809C2.96515 12.7116 2.9175 12.5825 2.9227 12.45C2.9279 12.3175 2.98553 12.1924 3.0829 12.1024L11.7424 4.09694L7.29597 3.92315C7.1633 3.91794 7.03813 3.86024 6.948 3.76275C6.85786 3.66525 6.81015 3.53594 6.81536 3.40327C6.82056 3.2706 6.87826 3.14543 6.97576 3.05529C7.07326 2.96516 7.20256 2.91745 7.33524 2.92266L12.9877 3.14449C13.0535 3.14698 13.118 3.16242 13.1778 3.18991C13.2375 3.21741 13.2913 3.25642 13.3359 3.30471C13.3806 3.353 13.4152 3.40963 13.438 3.47134C13.4607 3.53306 13.471 3.59865 13.4684 3.66437L13.2465 9.31687C13.2413 9.44954 13.1836 9.57471 13.0861 9.66485C12.9886 9.75498 12.8593 9.80269 12.7266 9.79748C12.594 9.79228 12.4688 9.73458 12.3787 9.63708C12.2885 9.53959 12.2408 9.41028 12.246 9.2776L12.4212 4.83123L3.76173 12.8367C3.66436 12.9267 3.53521 12.9744 3.40271 12.9692C3.2702 12.964 3.14519 12.9064 3.05517 12.809V12.809Z" fill="#17B49F"/>
</svg>
