<svg width="31" height="26" viewBox="0 0 31 26" fill="none" xmlns="http://www.w3.org/2000/svg">
<path d="M13.5625 6.5C13.5625 7.39746 14.4299 8.125 15.5 8.125C16.5701 8.125 17.4375 7.39746 17.4375 6.5C17.4375 5.60254 16.5701 4.875 15.5 4.875C14.4299 4.875 13.5625 5.60254 13.5625 6.5Z" fill="#FAFFFF"/>
<path d="M13.5625 13C13.5625 13.8975 14.4299 14.625 15.5 14.625C16.5701 14.625 17.4375 13.8975 17.4375 13C17.4375 12.1025 16.5701 11.375 15.5 11.375C14.4299 11.375 13.5625 12.1025 13.5625 13Z" fill="#FAFFFF"/>
<path d="M13.5625 19.5C13.5625 20.3975 14.4299 21.125 15.5 21.125C16.5701 21.125 17.4375 20.3975 17.4375 19.5C17.4375 18.6025 16.5701 17.875 15.5 17.875C14.4299 17.875 13.5625 18.6025 13.5625 19.5Z" fill="#FAFFFF"/>
</svg>
