<svg width="36" height="36" viewBox="0 0 36 36" fill="none" xmlns="http://www.w3.org/2000/svg">
<path d="M20.76 14.7605C19.7712 13.8901 18.5712 13.1955 17.2357 12.7204C15.9001 12.2453 14.458 12 13 12C11.542 12 10.0999 12.2453 8.76434 12.7204C7.42881 13.1955 6.22883 13.8901 5.24 14.7605C5.08733 14.8976 5.00193 15.0755 5 15.2604V18.2601C5.00324 18.4572 5.10192 18.6454 5.27468 18.7839C5.44744 18.9224 5.68038 19 5.92308 19H20.0769C20.3217 19 20.5565 18.921 20.7296 18.7804C20.9027 18.6397 21 18.449 21 18.2501V15.2504C20.9951 15.069 20.9099 14.895 20.76 14.7605Z" fill="#FBFFFD"/>
<path d="M13 10C15.2091 10 17 8.433 17 6.5C17 4.567 15.2091 3 13 3C10.7909 3 9 4.567 9 6.5C9 8.433 10.7909 10 13 10Z" fill="#FBFFFD"/>
<path d="M5 10H2M5 13V10V13ZM5 10V7V10ZM5 10H8H5Z" stroke="#FCFFFF" stroke-width="2" stroke-linecap="round"/>
</svg>
