<svg width="18" height="18" viewBox="0 0 18 18" fill="none" xmlns="http://www.w3.org/2000/svg">
<circle cx="9" cy="9" r="9" fill="#3E494F"/>
<path d="M10.0982 4C10.1453 3.99992 10.1919 4.0091 10.2354 4.02704C10.2788 4.04497 10.3184 4.0713 10.3517 4.10452L13.8952 7.64816C13.9623 7.71529 14 7.80631 14 7.90123C14 7.99614 13.9623 8.08717 13.8952 8.15429C13.5516 8.49792 13.1278 8.57524 12.8193 8.57524C12.6925 8.57524 12.5794 8.56235 12.49 8.54732L10.2464 10.7909C10.3055 11.0289 10.3438 11.2715 10.361 11.5161C10.3939 12.0187 10.3381 12.7238 9.84554 13.2163C9.77842 13.2834 9.68739 13.3211 9.59248 13.3211C9.49757 13.3211 9.40655 13.2834 9.33942 13.2163L7.31423 11.1918L5.03635 13.4698C4.89675 13.6094 4.1637 14.1155 4.02411 13.9759C3.88452 13.8363 4.39063 13.1025 4.53023 12.9636L6.80812 10.6857L4.78364 8.66043C4.71654 8.5933 4.67885 8.50227 4.67885 8.40736C4.67885 8.31245 4.71654 8.22142 4.78364 8.15429C5.27616 7.66176 5.98129 7.60521 6.48383 7.63886C6.72841 7.65599 6.97105 7.69431 7.209 7.7534L9.45253 5.51052C9.4338 5.40151 9.42423 5.29111 9.4239 5.1805C9.4239 4.87267 9.50121 4.44886 9.84554 4.10452C9.91262 4.03761 10.0035 4.00002 10.0982 4Z" fill="#8F969E"/>
</svg>
