<svg width="22" height="22" viewBox="0 0 22 22" fill="none" xmlns="http://www.w3.org/2000/svg">
<path d="M10.6562 2.75C6.28994 2.75 2.75 6.28994 2.75 10.6562V12.375H5.5C5.68234 12.375 5.8572 12.4474 5.98614 12.5764C6.11507 12.7053 6.1875 12.8802 6.1875 13.0625V19.9375C6.1875 20.1198 6.11507 20.2947 5.98614 20.4236C5.8572 20.5526 5.68234 20.625 5.5 20.625H4.46875C3.64824 20.625 2.86133 20.2991 2.28114 19.7189C1.70095 19.1387 1.375 18.3518 1.375 17.5312V10.6562C1.375 5.53025 5.53025 1.375 10.6562 1.375C15.7822 1.375 19.9375 5.53025 19.9375 10.6562V17.5312C19.9375 18.3518 19.6116 19.1387 19.0314 19.7189C18.4512 20.2991 17.6643 20.625 16.8438 20.625H15.8125C15.6302 20.625 15.4553 20.5526 15.3264 20.4236C15.1974 20.2947 15.125 20.1198 15.125 19.9375V13.0625C15.125 12.8802 15.1974 12.7053 15.3264 12.5764C15.4553 12.4474 15.6302 12.375 15.8125 12.375H18.5625V10.6562C18.5625 6.28994 15.0226 2.75 10.6562 2.75ZM11.3438 11.6875C11.3438 11.5052 11.2713 11.3303 11.1424 11.2014C11.0135 11.0724 10.8386 11 10.6562 11C10.4739 11 10.299 11.0724 10.1701 11.2014C10.0412 11.3303 9.96875 11.5052 9.96875 11.6875V20.625C9.96875 20.8073 10.0412 20.9822 10.1701 21.1111C10.299 21.2401 10.4739 21.3125 10.6562 21.3125C10.8386 21.3125 11.0135 21.2401 11.1424 21.1111C11.2713 20.9822 11.3438 20.8073 11.3438 20.625V11.6875ZM8.25 13.75C8.43234 13.75 8.6072 13.8224 8.73614 13.9514C8.86507 14.0803 8.9375 14.2552 8.9375 14.4375V17.875C8.9375 18.0573 8.86507 18.2322 8.73614 18.3611C8.6072 18.4901 8.43234 18.5625 8.25 18.5625C8.06766 18.5625 7.8928 18.4901 7.76386 18.3611C7.63493 18.2322 7.5625 18.0573 7.5625 17.875V14.4375C7.5625 14.2552 7.63493 14.0803 7.76386 13.9514C7.8928 13.8224 8.06766 13.75 8.25 13.75ZM13.75 14.4375C13.75 14.2552 13.6776 14.0803 13.5486 13.9514C13.4197 13.8224 13.2448 13.75 13.0625 13.75C12.8802 13.75 12.7053 13.8224 12.5764 13.9514C12.4474 14.0803 12.375 14.2552 12.375 14.4375V17.875C12.375 18.0573 12.4474 18.2322 12.5764 18.3611C12.7053 18.4901 12.8802 18.5625 13.0625 18.5625C13.2448 18.5625 13.4197 18.4901 13.5486 18.3611C13.6776 18.2322 13.75 18.0573 13.75 17.875V14.4375Z" fill="#FFFEFF"/>
</svg>
