<svg width="32" height="22" viewBox="0 0 32 22" fill="none" xmlns="http://www.w3.org/2000/svg">
<g filter="url(#filter0_d_1_4781)">
<g filter="url(#filter1_d_1_4781)">
<path d="M4.02276 12.1133L4.20652 1.49219C4.21261 1.14008 4.45892 0.80655 4.89124 0.564974C5.32357 0.323398 5.90651 0.193565 6.51183 0.204038L27.0528 0.55942L22.4422 3.13573L22.2814 12.4292C22.2753 12.7814 22.029 13.1149 21.5967 13.3565C21.1644 13.598 20.5814 13.7279 19.9761 13.7174L6.28213 13.4805C5.67682 13.47 5.09872 13.3201 4.675 13.0637C4.25129 12.8073 4.01667 12.4655 4.02276 12.1133Z" fill="#02A89C"/>
</g>
</g>
<line x1="8" y1="4.66455" x2="18" y2="4.66455" stroke="#101D25"/>
<line x1="8" y1="8.66455" x2="15" y2="8.66455" stroke="#101D25"/>
<defs>
<filter id="filter0_d_1_4781" x="0.0224609" y="0.203613" width="31.0303" height="21.5142" filterUnits="userSpaceOnUse" color-interpolation-filters="sRGB">
<feFlood flood-opacity="0" result="BackgroundImageFix"/>
<feColorMatrix in="SourceAlpha" type="matrix" values="0 0 0 0 0 0 0 0 0 0 0 0 0 0 0 0 0 0 127 0" result="hardAlpha"/>
<feOffset dy="4"/>
<feGaussianBlur stdDeviation="2"/>
<feComposite in2="hardAlpha" operator="out"/>
<feColorMatrix type="matrix" values="0 0 0 0 0 0 0 0 0 0 0 0 0 0 0 0 0 0 0.25 0"/>
<feBlend mode="normal" in2="BackgroundImageFix" result="effect1_dropShadow_1_4781"/>
<feBlend mode="normal" in="SourceGraphic" in2="effect1_dropShadow_1_4781" result="shape"/>
</filter>
<filter id="filter1_d_1_4781" x="0.0224609" y="0.203613" width="31.0303" height="21.5142" filterUnits="userSpaceOnUse" color-interpolation-filters="sRGB">
<feFlood flood-opacity="0" result="BackgroundImageFix"/>
<feColorMatrix in="SourceAlpha" type="matrix" values="0 0 0 0 0 0 0 0 0 0 0 0 0 0 0 0 0 0 127 0" result="hardAlpha"/>
<feOffset dy="4"/>
<feGaussianBlur stdDeviation="2"/>
<feColorMatrix type="matrix" values="0 0 0 0 0 0 0 0 0 0 0 0 0 0 0 0 0 0 0.25 0"/>
<feBlend mode="normal" in2="BackgroundImageFix" result="effect1_dropShadow_1_4781"/>
<feBlend mode="normal" in="SourceGraphic" in2="effect1_dropShadow_1_4781" result="shape"/>
</filter>
</defs>
</svg>
