<svg width="19" height="22" viewBox="0 0 19 22" fill="none" xmlns="http://www.w3.org/2000/svg">
<path d="M4.36745 2.27008L5.30814 1.79082C6.18809 1.34096 7.25984 1.65866 7.81179 2.53155L8.91019 4.27021C9.38844 5.02688 9.35342 6.01599 8.82417 6.71394L7.35035 8.65612C7.62092 9.62962 8.11406 10.5507 8.82898 11.4199C9.51182 12.2614 10.3566 12.9575 11.3132 13.4667L13.2956 12.4247C14.0468 12.0292 14.9614 12.1916 15.5661 12.8274L16.9748 14.3102C17.6782 15.0504 17.7642 16.2151 17.1776 17.0348L16.5475 17.9161C15.9217 18.7914 14.8951 19.2399 13.8538 19.0935C11.3952 18.7469 8.8894 16.9332 6.33638 13.6526C3.77985 10.3658 2.58447 7.41894 2.75059 4.80927C2.82003 3.71119 3.43572 2.74619 4.36745 2.27008V2.27008Z" fill="#02A89C"/>
</svg>
