<svg width="20" height="12" viewBox="0 0 20 12" fill="none" xmlns="http://www.w3.org/2000/svg">
<path d="M13.5379 12H2.00216C1.64223 12 1.29703 11.8736 1.04252 11.6485C0.788004 11.4235 0.64502 11.1183 0.64502 10.8V1.2C0.64502 0.88174 0.788004 0.576515 1.04252 0.351472C1.29703 0.126428 1.64223 0 2.00216 0H13.5379C13.8978 0 14.243 0.126428 14.4975 0.351472C14.752 0.576515 14.895 0.88174 14.895 1.2V3.636L18.5729 1.314C18.6742 1.25024 18.7933 1.21231 18.9173 1.20434C19.0413 1.19638 19.1654 1.21869 19.276 1.26884C19.3867 1.31899 19.4796 1.39505 19.5447 1.48872C19.6097 1.58239 19.6444 1.69007 19.645 1.8V10.2C19.6444 10.3099 19.6097 10.4176 19.5447 10.5113C19.4796 10.6049 19.3867 10.681 19.276 10.7312C19.1654 10.7813 19.0413 10.8036 18.9173 10.7957C18.7933 10.7877 18.6742 10.7498 18.5729 10.686L14.895 8.364V10.8C14.895 11.1183 14.752 11.4235 14.4975 11.6485C14.243 11.8736 13.8978 12 13.5379 12Z" fill="#02A89C"/>
</svg>
