<svg width="24" height="26" viewBox="0 0 24 26" fill="none" xmlns="http://www.w3.org/2000/svg">
<path d="M12 2.1665C8.13 2.1665 5 5.55734 5 9.74984C5 15.4373 12 23.8332 12 23.8332C12 23.8332 19 15.4373 19 9.74984C19 5.55734 15.87 2.1665 12 2.1665ZM12 12.4582C11.337 12.4582 10.7011 12.1728 10.2322 11.6649C9.76339 11.157 9.5 10.4681 9.5 9.74984C9.5 9.03154 9.76339 8.34267 10.2322 7.83476C10.7011 7.32685 11.337 7.0415 12 7.0415C12.663 7.0415 13.2989 7.32685 13.7678 7.83476C14.2366 8.34267 14.5 9.03154 14.5 9.74984C14.5 10.4681 14.2366 11.157 13.7678 11.6649C13.2989 12.1728 12.663 12.4582 12 12.4582Z" fill="#FFFEFF"/>
</svg>
