<svg width="21" height="34" viewBox="0 0 21 34" fill="none" xmlns="http://www.w3.org/2000/svg">
<path d="M1.03488 14C1.30935 14 1.57258 14.109 1.76666 14.3031C1.96074 14.4972 2.06977 14.7604 2.06977 15.0349V17.1047C2.06977 19.3004 2.94202 21.4062 4.49465 22.9588C6.04728 24.5115 8.15309 25.3837 10.3488 25.3837C12.5446 25.3837 14.6504 24.5115 16.203 22.9588C17.7557 21.4062 18.6279 19.3004 18.6279 17.1047V15.0349C18.6279 14.7604 18.7369 14.4972 18.931 14.3031C19.1251 14.109 19.3883 14 19.6628 14C19.9373 14 20.2005 14.109 20.3946 14.3031C20.5886 14.4972 20.6977 14.7604 20.6977 15.0349V17.1047C20.6977 19.6702 19.7448 22.1443 18.0238 24.0469C16.3028 25.9496 13.9364 27.1452 11.3837 27.4017V31.593H17.593C17.8675 31.593 18.1307 31.7021 18.3248 31.8961C18.5189 32.0902 18.6279 32.3534 18.6279 32.6279C18.6279 32.9024 18.5189 33.1656 18.3248 33.3597C18.1307 33.5538 17.8675 33.6628 17.593 33.6628H3.10465C2.83018 33.6628 2.56696 33.5538 2.37288 33.3597C2.1788 33.1656 2.06977 32.9024 2.06977 32.6279C2.06977 32.3534 2.1788 32.0902 2.37288 31.8961C2.56696 31.7021 2.83018 31.593 3.10465 31.593H9.31395V27.4017C6.76128 27.1452 4.39489 25.9496 2.67389 24.0469C0.952888 22.1443 -3.22297e-05 19.6702 8.17571e-10 17.1047V15.0349C8.17571e-10 14.7604 0.109032 14.4972 0.303111 14.3031C0.497189 14.109 0.760415 14 1.03488 14Z" fill="#FAFFF7"/>
<path d="M4 6.2093C4 4.56249 4.65419 2.98313 5.81866 1.81866C6.98313 0.654192 8.56249 0 10.2093 0C11.8561 0 13.4355 0.654192 14.5999 1.81866C15.7644 2.98313 16.4186 4.56249 16.4186 6.2093V16.5581C16.4186 18.2049 15.7644 19.7843 14.5999 20.9488C13.4355 22.1133 11.8561 22.7674 10.2093 22.7674C8.56249 22.7674 6.98313 22.1133 5.81866 20.9488C4.65419 19.7843 4 18.2049 4 16.5581V6.2093Z" fill="#FAFFF7"/>
</svg>
